<svg xmlns="http://www.w3.org/2000/svg" width="35" height="45" viewBox="0 0 38 41" fill="none">
  <path d="M21.9535 5.3543L26.5108 9.28573H21.9535V5.3543ZM30.7632 33.376C29.832 33.376 29.0738 34.1244 29.0738 35.0538V36.9455H4.0044V3.35569H18.5829V10.9553C18.5829 11.8847 19.3411 12.6332 20.2723 12.6332H29.0821V22.7003C29.0821 23.6297 29.8402 24.3781 30.7715 24.3781C31.7027 24.3781 32.4609 23.6297 32.4609 22.7003V10.7251C32.4609 10.2398 32.2466 9.77099 31.8758 9.45845L21.3766 0.411237C21.0717 0.148045 20.6761 0 20.2723 0H3C2.06876 0 0.633789 1.0706 0.633789 2V38C0.633789 38.9294 2.06876 40.3012 3 40.3012H30C30.9312 40.3012 32.5 38.9294 32.5 38L32.4609 35.0538C32.4527 34.1244 31.6945 33.376 30.7632 33.376Z" fill="black"/>
  <path d="M23.2724 15.4543H9.92185C8.9906 15.4543 8.23242 16.2028 8.23242 17.1322C8.23242 18.0616 8.9906 18.81 9.92185 18.81H23.2807C24.2119 18.81 24.9701 18.0616 24.9701 17.1322C24.9701 16.2028 24.2037 15.4543 23.2724 15.4543Z" fill="black"/>
  <path d="M23.2724 23.7201H9.92185C8.9906 23.7201 8.23242 24.4685 8.23242 25.3979C8.23242 26.3273 8.9906 27.0758 9.92185 27.0758H23.2807C24.2119 27.0758 24.9701 26.3273 24.9701 25.3979C24.9618 24.4768 24.2037 23.7201 23.2724 23.7201Z" fill="black"/>
  <path d="M37.7099 25.2088C37.6274 24.2877 36.8033 23.605 35.8803 23.6873C32.0729 24.0245 28.4551 28.178 26.5926 30.703L25.4965 29.461C24.8785 28.7619 23.8154 28.6961 23.1149 29.313C22.4144 29.9298 22.3484 30.9908 22.9665 31.6817L25.4965 34.5439C26.4855 35.5227 27.5733 35.3417 28.1914 34.3218C29.2957 32.5042 33.1937 27.2979 36.177 27.0347C37.1083 26.9443 37.7923 26.13 37.7099 25.2088Z" fill="black"/>
</svg>