 <svg
              xmlns="http://www.w3.org/2000/svg"
              width="35"
              height="45"
              viewBox="0 0 63 92"
              fill="none">
              <path
                d="M50.7721 0H11.3191C5.06619 0.0014375 0.00121875 5.97569 0 13.3522V78.6492C0.00121875 86.0214 5.06619 91.9969 11.3191 92H50.7719C57.0249 91.9969 62.0898 86.0216 62.091 78.6492V13.3522C62.09 5.97569 57.025 0.0014375 50.7721 0ZM57.0226 78.6492C57.0214 80.6941 56.327 82.5186 55.1923 83.8614C54.0526 85.2013 52.5057 86.0186 50.7721 86.0216H11.3191C9.58547 86.0186 8.03857 85.2013 6.89889 83.8614C5.76408 82.5186 5.06985 80.6941 5.06863 78.6492V13.3522C5.06985 11.3059 5.76408 9.48139 6.89889 8.13715C8.03857 6.79866 9.5841 5.98 11.3191 5.97838H50.7719C52.5069 5.97982 54.0525 6.79866 55.1922 8.13715C56.3268 9.48157 57.0212 11.3059 57.0224 13.3522V78.6492H57.0226Z"
                fill="black" />
              <path
                d="M12.4968 49V24.2727H22.2525C24.128 24.2727 25.7258 24.6309 27.0458 25.3473C28.3659 26.0556 29.3721 27.0416 30.0643 28.3054C30.7646 29.5611 31.1147 31.0099 31.1147 32.652C31.1147 34.294 30.7606 35.7429 30.0522 36.9986C29.3439 38.2542 28.3176 39.2322 26.9734 39.9325C25.6372 40.6328 24.0193 40.9829 22.1197 40.9829H15.9017V36.7933H21.2745C22.2807 36.7933 23.1098 36.6202 23.7617 36.2741C24.4218 35.92 24.9128 35.433 25.2348 34.8132C25.5648 34.1853 25.7298 33.4649 25.7298 32.652C25.7298 31.8309 25.5648 31.1146 25.2348 30.5028C24.9128 29.883 24.4218 29.4041 23.7617 29.066C23.1017 28.7199 22.2646 28.5469 21.2504 28.5469H17.7248V49H12.4968Z"
                fill="black" />
              <path
                d="M34.5105 49V24.2727H39.7385V44.6896H50.3393V49H34.5105Z"
                fill="black" />
              <path
                d="M9 75.0582V64.1491H13.304C14.1314 64.1491 14.8363 64.3072 15.4187 64.6232C16.0011 64.9357 16.445 65.3707 16.7504 65.9283C17.0593 66.4822 17.2138 67.1214 17.2138 67.8459C17.2138 68.5703 17.0575 69.2095 16.745 69.7635C16.4325 70.3175 15.9798 70.7489 15.3867 71.0579C14.7972 71.3668 14.0835 71.5213 13.2454 71.5213H10.5021V69.6729H12.8725C13.3164 69.6729 13.6822 69.5966 13.9698 69.4439C14.261 69.2876 14.4776 69.0728 14.6197 68.7994C14.7653 68.5224 14.8381 68.2045 14.8381 67.8459C14.8381 67.4837 14.7653 67.1676 14.6197 66.8977C14.4776 66.6243 14.261 66.413 13.9698 66.2638C13.6786 66.1112 13.3093 66.0348 12.8619 66.0348H11.3065V75.0582H9Z"
                fill="black" />
              <path
                d="M18.7119 75.0582V64.1491H26.0628V66.0508H21.0184V68.6502H25.6846V70.5518H21.0184V73.1566H26.0841V75.0582H18.7119Z"
                fill="black" />
              <path
                d="M33.8145 67.2866C33.7718 66.8569 33.589 66.5231 33.2658 66.2852C32.9426 66.0472 32.5041 65.9283 31.9501 65.9283C31.5737 65.9283 31.2559 65.9815 30.9966 66.0881C30.7374 66.1911 30.5385 66.3349 30.4 66.5195C30.2651 66.7042 30.1976 66.9137 30.1976 67.1481C30.1905 67.3434 30.2314 67.5138 30.3201 67.6594C30.4125 67.805 30.5385 67.9311 30.6983 68.0376C30.8581 68.1406 31.0428 68.2312 31.2523 68.3093C31.4618 68.3839 31.6855 68.4478 31.9235 68.5011L32.9036 68.7354C33.3794 68.842 33.8162 68.984 34.214 69.1616C34.6117 69.3391 34.9561 69.5575 35.2473 69.8168C35.5385 70.076 35.764 70.3814 35.9238 70.733C36.0872 71.0845 36.1706 71.4876 36.1742 71.9421C36.1706 72.6097 36.0002 73.1886 35.6628 73.6786C35.329 74.1651 34.8461 74.5433 34.214 74.8132C33.5854 75.0795 32.8272 75.2127 31.9395 75.2127C31.0588 75.2127 30.2917 75.0778 29.6383 74.8079C28.9885 74.538 28.4806 74.1385 28.1149 73.6094C27.7527 73.0767 27.5627 72.418 27.5449 71.6332H29.7768C29.8017 71.9989 29.9064 72.3043 30.0911 72.5494C30.2793 72.7908 30.5297 72.9737 30.8422 73.098C31.1582 73.2188 31.5151 73.2791 31.9128 73.2791C32.3034 73.2791 32.6426 73.2223 32.9302 73.1087C33.2214 72.995 33.4469 72.837 33.6067 72.6346C33.7665 72.4322 33.8464 72.1996 33.8464 71.9368C33.8464 71.6918 33.7736 71.4858 33.628 71.3189C33.486 71.152 33.2765 71.0099 32.9995 70.8928C32.726 70.7756 32.3904 70.669 31.9927 70.5732L30.8049 70.2749C29.8851 70.0511 29.1589 69.7013 28.6262 69.2255C28.0936 68.7496 27.829 68.1087 27.8326 67.3026C27.829 66.642 28.0048 66.065 28.3599 65.5714C28.7186 65.0778 29.2104 64.6925 29.8354 64.4155C30.4604 64.1385 31.1706 64 31.9661 64C32.7757 64 33.4824 64.1385 34.0861 64.4155C34.6934 64.6925 35.1657 65.0778 35.503 65.5714C35.8404 66.065 36.0144 66.6367 36.025 67.2866H33.8145Z"
                fill="black" />
              <path
                d="M37.7256 75.0582V64.1491H45.0764V66.0508H40.032V68.6502H44.6982V70.5518H40.032V73.1566H45.0977V75.0582H37.7256Z"
                fill="black" />
              <path
                d="M46.9102 75.0582V64.1491H49.2166V73.1566H53.8935V75.0582H46.9102Z"
                fill="black" />
            </svg>