<svg width="30" height="45" viewBox="0 0 63 92" fill="white" xmlns="http://www.w3.org/2000/svg">
<path d="M50.5002 63H48.5846L48.3865 63.1795L44.8301 75.0094L44.9364 75.1889H46.9288L47.1244 75.0094L47.7036 72.8769H51.3195L51.9135 75.0094L52.1115 75.1889H54.0865L54.1928 75.0094L50.6982 63.1795L50.5002 63ZM48.3273 70.6365L49.4955 66.3702H49.5425L50.7131 70.6365H48.3273Z" fill="white"/>
<path d="M13.5832 74.956L15.4987 74.9709L15.6981 74.7929L19.3463 62.991L19.2414 62.8106L17.2491 62.7952L17.0521 62.9732L16.4564 65.1011L15.8153 67.3366L14.567 71.5933L12.8301 65.1011L12.2632 62.936L12.0665 62.7549L10.0916 62.7396L9.98386 62.9183L13.3866 74.775L13.5832 74.956ZM15.8153 67.3366L14.614 71.5937L14.567 71.5933L13.4295 67.318L12.8301 65.1011L14.567 71.5933L15.8153 67.3366Z" fill="white"/>
<path d="M29.6342 68.0544L29.0847 67.9653C27.9018 67.7667 27.476 67.3188 27.476 66.6194C27.476 65.8489 27.9463 65.2943 28.857 65.2943C29.7083 65.2943 30.4682 65.6168 31.2601 66.2256L31.4729 66.1715L32.3985 64.5412L32.3688 64.2727C31.5026 63.4832 30.2255 63 28.857 63C26.6245 63 25.194 64.4873 25.194 66.7278C25.194 68.8792 26.3646 70.0441 28.4635 70.3855L29.0104 70.4745C30.2404 70.6716 30.6066 71.1197 30.6066 71.8363C30.6066 72.6974 29.9979 73.2885 28.9187 73.2885C27.8247 73.2885 26.8966 72.6798 26.2137 72.0333L25.9859 72.0523L24.8301 73.6113L24.845 73.9164C25.6518 74.8301 27.2159 75.5832 28.8271 75.5832C31.5026 75.5832 32.886 73.9529 32.886 71.7474C32.8863 69.5417 31.7602 68.3944 29.6342 68.0544Z" fill="white"/>
<path d="M39.6313 68.0544L39.0844 67.9653C37.8989 67.7667 37.4732 67.3188 37.4732 66.6194C37.4732 65.8489 37.9435 65.2943 38.8567 65.2943C39.7081 65.2943 40.4679 65.6168 41.2573 66.2256L41.4701 66.1715L42.3982 64.5412L42.3661 64.2727C41.4998 63.4832 40.2253 63 38.8567 63C36.6218 63 35.1937 64.4873 35.1937 66.7278C35.1937 68.8792 36.3643 70.0441 38.4606 70.3855L39.0075 70.4745C40.2401 70.6716 40.6039 71.1197 40.6039 71.8363C40.6039 72.6974 39.995 73.2885 38.9161 73.2885C37.8221 73.2885 36.8965 72.6798 36.2109 72.0333L35.9833 72.0521L34.8301 73.6111L34.845 73.9162C35.6494 74.8299 37.2161 75.583 38.8273 75.583C41.5001 75.583 42.8836 73.9527 42.8836 71.7472C42.8834 69.5417 41.7597 68.3944 39.6313 68.0544Z" fill="white"/>
<rect x="20.8301" y="63" width="2.12548" height="12" transform="rotate(0.788763 20.8301 63)" fill="white"/>
<!-- <path d="M51.6627 0H12.2098C5.95682 0.0014375 0.891844 5.97569 0.890625 13.3522V78.6492C0.891844 86.0214 5.95682 91.9969 12.2098 92H51.6625C57.9155 91.9969 62.9805 86.0216 62.9817 78.6492V13.3522C62.9806 5.97569 57.9156 0.0014375 51.6627 0ZM57.9132 78.6492C57.912 80.6941 57.2176 82.5186 56.0829 83.8614C54.9433 85.2013 53.3964 86.0186 51.6627 86.0216H12.2098C10.4761 86.0186 8.9292 85.2013 7.78951 83.8614C6.6547 82.5186 5.96047 80.6941 5.95925 78.6492V13.3522C5.96047 11.3059 6.6547 9.48139 7.78951 8.13715C8.9292 6.79866 10.4747 5.98 12.2098 5.97838H51.6625C53.3976 5.97982 54.9431 6.79866 56.0828 8.13715C57.2174 9.48157 57.9118 11.3059 57.913 13.3522L57.9132 78.6492Z" fill="white"/> -->
<!-- <path d="M31.9375 20.64C24.2021 20.64 17.9355 28.0327 17.9331 37.1551C17.9355 46.2789 24.2021 53.6702 31.9375 53.6716C39.6704 53.6702 45.9394 46.2789 45.9394 37.1551C45.9394 28.0327 39.6704 20.64 31.9375 20.64ZM23.7392 27.4868C24.947 26.0623 26.4183 24.9531 28.0567 24.267C27.2733 25.3879 26.6162 26.8272 26.1039 28.4852H22.9719C23.2108 28.1378 23.4694 27.8049 23.7392 27.4868ZM22.081 29.9521H25.7019C25.2378 31.9007 24.9594 34.0943 24.9074 36.4225H20.3572C20.4649 34.0533 21.0824 31.848 22.081 29.9521ZM20.3572 37.8877H24.9135C24.9642 40.2171 25.234 42.4093 25.7017 44.3595H22.0808C21.0824 42.462 20.4649 40.2581 20.3572 37.8877ZM23.7392 46.8246C23.4694 46.5064 23.2108 46.1707 22.972 45.8248H26.1041C26.3292 46.5457 26.5719 47.2246 26.8478 47.8506C27.2067 48.6738 27.6101 49.4067 28.0556 50.0444C26.4159 49.3571 24.9458 48.2506 23.7392 46.8246ZM31.3174 50.8108C31.122 50.7991 30.9302 50.7817 30.7358 50.7612C30.4326 50.5977 30.1294 50.3788 29.8299 50.0899C28.9192 49.2112 28.074 47.7268 27.4293 45.825H31.3174V50.8108ZM31.3174 44.3595H26.9974C26.5061 42.4562 26.2029 40.2493 26.1522 37.8877H31.3174V44.3595ZM31.3174 36.4223H26.1548C26.2055 34.0607 26.5113 31.8538 27.0037 29.952H31.3174V36.4223ZM31.3174 28.4852H27.4368C27.5964 28.0108 27.766 27.5512 27.9503 27.1307C28.5023 25.8725 29.1494 24.877 29.8299 24.2203C30.1294 23.9342 30.4326 23.7154 30.7358 23.5519C30.93 23.5315 31.1218 23.5139 31.3174 23.5008V28.4852ZM43.5153 36.4223H38.9588C38.9105 34.0957 38.6383 31.9005 38.173 29.952H41.7914C42.79 31.848 43.41 34.0533 43.5153 36.4223ZM40.1369 27.4868C40.4066 27.8051 40.6616 28.1378 40.9041 28.4852H37.7684C37.5469 27.7671 37.3006 27.084 37.0247 26.4592C36.6682 25.6389 36.2636 24.9033 35.8193 24.267C37.4578 24.9559 38.9279 26.0623 40.1369 27.4868ZM32.5587 23.5006C32.753 23.5138 32.9448 23.5314 33.1366 23.5517C33.4397 23.7152 33.7429 23.934 34.0424 24.2201C34.9543 25.0973 35.8021 26.5817 36.443 28.485H32.5586V23.5006H32.5587ZM32.5587 29.9521H36.8749C37.3687 31.854 37.6694 34.0609 37.7238 36.4225H32.5586V29.9521H32.5587ZM32.5587 37.8877H37.7177C37.6645 40.2524 37.3614 42.4562 36.8725 44.3595H32.5587V37.8877ZM34.0424 50.0897C33.7429 50.3787 33.4397 50.5975 33.1366 50.761C32.9448 50.7815 32.753 50.7989 32.5587 50.8106V45.8248H36.4369C36.2761 46.3006 36.1077 46.7617 35.9246 47.1793C35.3727 48.4391 34.7231 49.433 34.0424 50.0897ZM40.1369 46.8246C38.9267 48.2506 37.4566 49.3571 35.8157 50.0444C36.6027 48.9219 37.2561 47.4859 37.7684 45.8248H40.9041C40.6616 46.1707 40.4067 46.5064 40.1369 46.8246ZM41.7914 44.3595H38.1705C38.6345 42.4095 38.913 40.2171 38.9649 37.8877H43.5151C43.41 40.2581 42.79 42.462 41.7914 44.3595Z" fill="black"/> -->
</svg>