<svg width="44" height="44" viewBox="0 0 144 144" fill="none" xmlns="http://www.w3.org/2000/svg">
<path d="M71.8651 139.359C90.503 139.359 107.377 131.804 119.59 119.591C131.804 107.378 139.358 90.5037 139.358 71.8651C139.358 53.2273 131.803 36.3533 119.59 24.14C107.377 11.9267 90.503 4.37263 71.8651 4.37263C53.2266 4.37263 36.3533 11.9273 24.14 24.14C11.9267 36.3533 4.37263 53.2273 4.37263 71.8651C4.37263 90.5037 11.9273 107.377 24.14 119.591C36.3533 131.804 53.2273 139.359 71.8651 139.359ZM122.681 122.682C109.676 135.687 91.7093 143.731 71.8651 143.731C52.021 143.731 34.0545 135.687 21.0491 122.682C8.04369 109.676 0 91.7093 0 71.8651C0 52.021 8.04369 34.0545 21.0491 21.0491C34.0538 8.04369 52.021 0 71.8651 0C91.7093 0 109.676 8.04369 122.681 21.0491C135.687 34.0538 143.73 52.021 143.73 71.8651C143.73 91.7093 135.687 109.676 122.681 122.682Z" fill="#A1A1A6"/>
<path d="M65.5943 68.382V130.396C57.0081 129.108 53.2842 128.771 44.4587 124.59V59.5551L48.8718 57.4648L65.5949 68.3813L65.5943 68.382Z" fill="#A1A1A6"/>
<path d="M65.5943 68.382V130.396C57.0081 129.108 53.2842 128.771 44.4587 124.59V59.5551L48.8718 57.4648L65.5949 68.3813L65.5943 68.382Z" fill="#A1A1A6"/>
<path d="M104.15 40.0456V69.7755L96.7177 64.8982L76.975 73.9568L76.5107 27.0388L80.9513 24.9485L104.15 40.0456Z" fill="#A1A1A6"/>
<path d="M104.15 40.0456V69.7755L96.7177 64.8982L76.975 73.9568L76.5107 27.0388L80.9513 24.9485L104.15 40.0456Z" fill="#A1A1A6"/>
<path d="M113.441 77.6725V112.976C105.656 120.302 101.774 122.09 92.703 126.265L92.3046 126.448V68.8463L96.7184 66.756L113.441 77.6725H113.441Z" fill="#A1A1A6"/>
<path d="M113.441 77.6725V112.976C105.656 120.302 101.774 122.09 92.703 126.265L92.3046 126.448V68.8463L96.7184 66.756L113.441 77.6725H113.441Z" fill="#A1A1A6"/>
<path d="M76.5107 75.8146L96.4852 66.756L93.4663 71.6333L79.2985 78.3685V130.164C78.335 130.344 77.7397 130.366 76.5114 130.164V75.814L76.5107 75.8146Z" fill="#A1A1A6"/>
<path d="M76.5107 75.8146L96.4852 66.756L93.4663 71.6333L79.2985 78.3685V130.164C78.335 130.344 77.7397 130.366 76.5114 130.164V75.814L76.5107 75.8146Z" fill="#A1A1A6"/>
<path d="M29.1285 66.5242L49.1029 57.4655L45.8509 62.576L31.4506 69.3112V115.764C30.4068 115.209 29.8842 114.82 29.1278 113.905V66.5235L29.1285 66.5242Z" fill="#A1A1A6"/>
<path d="M29.1285 66.5242L49.1029 57.4655L45.8509 62.576L31.4506 69.3112V115.764C30.4068 115.209 29.8842 114.82 29.1278 113.905V66.5235L29.1285 66.5242Z" fill="#A1A1A6"/>
<path d="M55.1427 36.5618L80.9231 24.9485L77.9043 29.8266L59.7876 38.6521V61.8786L55.1427 58.6272V36.5618Z" fill="#A1A1A6"/>
<path d="M55.1427 36.5618L80.9231 24.9485L77.9043 29.8266L59.7876 38.6521V61.8786L55.1427 58.6272V36.5618Z" fill="#A1A1A6"/>
</svg>
